{"title":"The Outlaw Josey Wales - [Western] - (1976) - DVDRip - [=Faith=]","uid":14328787,"size":1959863563,"categoryP":"video","categoryS":"movies","magnet":"?xt=urn:btih:45658c969eb84b756dd3154dc22e0a81d1b89ebb&amp;dn=The+Outlaw+Josey+Wales+-+%5BWestern%5D+-+%281976%29+-+DVDRip+-+%5B%3DFaith%3D%5D&amp;tr=udp%3A%2F%2Ftracker.leechers-paradise.org%3A6969&amp;tr=udp%3A%2F%2Fzer0day.ch%3A1337&amp;tr=udp%3A%2F%2Fopen.demonii.com%3A1337&amp;tr=udp%3A%2F%2Ftracker.coppersurfer.tk%3A6969&amp;tr=udp%3A%2F%2Fexodus.desync.com%3A6969","seeders":15,"leechers":5,"uploader":"Faithwyn","files":3,"time":1460674677,"description":"The Outlaw Josey Wales\r\n\r\n\r\nA Missouri farmer joins a Confederate guerrilla unit and winds up\r\non the run from the Union soldiers who murdered his family.\r\n\r\n\r\nMovie:\r\n\r\nTitle: The Outlaw Josey Wales\r\nGenre: Action/Western\r\nRating: PG\r\nYear: 1976\r\nStars: Clint Eastwood, Sondra Locke, Chief Dan George\r\nDirector: Clint Eastwood\r\nWriters: Forrest Carter (book), Philip Kaufman (screenplay)\r\nLength: 2:15\r\nScreen: Letterbox 2.35:1\r\nIMDB Rating: 7.9\r\n\r\n\r\nGeneral:\r\n\r\nComplete name : The Outlaw Josey Wales.mp4\r\nFormat : MPEG-4\r\nFormat profile : Base Media / Version 2\r\nCodec ID : mp42\r\nFile size : 1.83 GiB\r\nDuration : 2h 15mn\r\nOverall bit rate mode : Variable\r\nOverall bit rate : 1 923 Kbps\r\nEncoded date : UTC 2014-03-30 13:21:38\r\nTagged date : UTC 2014-03-30 14:08:56\r\n\r\n\r\nVideo:\r\n\r\nID : 1\r\nFormat : AVC\r\nFormat/Info : Advanced Video Codec\r\nFormat profile :   \r\nFormat settings, CABAC : Yes\r\nFormat settings, ReFrames : 4 frames\r\nCodec ID : avc1\r\nCodec ID/Info : Advanced Video Coding\r\nDuration : 2h 15mn\r\nBit rate mode : Variable\r\nBit rate : 1 756 Kbps\r\nWidth : 720 pixels\r\nHeight : 366 pixels\r\nDisplay aspect ratio : 2.35:1\r\nOriginal display aspect ratio : 2.35:1\r\nFrame rate mode : Variable\r\nFrame rate : 26.697 fps\r\nMinimum frame rate : 8.367 fps\r\nMaximum frame rate : 29.970 fps\r\nColor space : YUV\r\nChroma subsampling : 4:2:0\r\nBit depth : 8 bits\r\nScan type : Progressive\r\nBits/(Pixel*Frame) : 0.250\r\nStream size : 1.67 GiB (91%)\r\nWriting library : x264 core 130 r2273 b3065e6\r\nColor primaries : BT.601 NTSC\r\nTransfer characteristics : BT.709\r\nMatrix coefficients : BT.601\r\n\r\n\r\nAudio:\r\n\r\nID : 2\r\nFormat : AAC\r\nFormat/Info : Advanced Audio Codec\r\nFormat profile : LC\r\nCodec ID : 40\r\nDuration : 2h 15mn\r\nBit rate mode : Variable\r\nBit rate : 160 Kbps\r\nMaximum bit rate : 319 Kbps\r\nChannel(s) : 2 channels\r\nChannel positions : Front: L R\r\nSampling rate : 48.0 KHz\r\nCompression mode : Lossy\r\nDelay relative to video : 170ms\r\nStream size : 155 MiB (8%)\r\nLanguage : English\r\n\r\n\r\nMovie Info:\r\n\r\nThe Outlaw Josey Wales is a 1976 American revisionist Western film set during\r\nand after the American Civil War. It was directed by and starred Clint Eastwood\r\n(as the eponymous Josey Wales), with Chief Dan George, Sondra Locke,\r\nSam Bottoms, and Geraldine Keams.\r\n\r\nThe film was adapted by Sonia Chernus and Philip Kaufman from Forrest Carter's\r\n1973 novel The Rebel Outlaw: Josey Wales (republished, as shown in the movie's\r\nopening credits, as Gone to Texas). In 1996, the film was selected for \r\npreservation in the National Film Registry of the Library of Congress","torrent":{"xt":"urn:btih:45658c969eb84b756dd3154dc22e0a81d1b89ebb","amp;dn":"The+Outlaw+Josey+Wales+-+%5BWestern%5D+-+%281976%29+-+DVDRip+-+%5B%3DFaith%3D%5D","amp;tr":["udp%3A%2F%2Ftracker.leechers-paradise.org%3A6969","udp%3A%2F%2Fzer0day.ch%3A1337","udp%3A%2F%2Fopen.demonii.com%3A1337","udp%3A%2F%2Ftracker.coppersurfer.tk%3A6969","udp%3A%2F%2Fexodus.desync.com%3A6969"],"infoHash":"45658c969eb84b756dd3154dc22e0a81d1b89ebb","infoHashBuffer":{"type":"Buffer","data":[69,101,140,150,158,184,75,117,109,211,21,77,194,46,10,129,209,184,158,187]},"announce":[],"urlList":[]}}